{
	"asset":{
		"generator":"Khronos glTF Blender I/O v3.5.30",
		"version":"2.0"
	},
	"scene":0,
	"scenes":[
		{
			"name":"Scene",
			"nodes":[
				0
			]
		}
	],
	"nodes":[
		{
			"mesh":0,
			"name":"Sphere",
			"scale":[
				0.19999998807907104,
				0.19999998807907104,
				0.19999998807907104
			]
		}
	],
	"materials":[
		{
			"doubleSided":true,
			"name":"Material",
			"pbrMetallicRoughness":{
				"baseColorFactor":[
					0.007548158522695303,
					0.3167959451675415,
					0.8000000715255737,
					1
				],
				"metallicFactor":0.5,
				"roughnessFactor":0.5
			}
		}
	],
	"meshes":[
		{
			"name":"Sphere",
			"primitives":[
				{
					"attributes":{
						"POSITION":0,
						"TEXCOORD_0":1,
						"NORMAL":2
					},
					"indices":3,
					"material":0
				}
			]
		}
	],
	"accessors":[
		{
			"bufferView":0,
			"componentType":5126,
			"count":17856,
			"max":[
				1.3331891298294067,
				2.9054346084594727,
				0.9999994039535522
			],
			"min":[
				-1.3218117952346802,
				-2.5135321617126465,
				-0.9999999403953552
			],
			"type":"VEC3"
		},
		{
			"bufferView":1,
			"componentType":5126,
			"count":17856,
			"type":"VEC2"
		},
		{
			"bufferView":2,
			"componentType":5126,
			"count":17856,
			"type":"VEC3"
		},
		{
			"bufferView":3,
			"componentType":5123,
			"count":25920,
			"type":"SCALAR"
		}
	],
	"bufferViews":[
		{
			"buffer":0,
			"byteLength":214272,
			"byteOffset":0,
			"target":34962
		},
		{
			"buffer":0,
			"byteLength":142848,
			"byteOffset":214272,
			"target":34962
		},
		{
			"buffer":0,
			"byteLength":214272,
			"byteOffset":357120,
			"target":34962
		},
		{
			"buffer":0,
			"byteLength":51840,
			"byteOffset":571392,
			"target":34963
		}
	],
	"buffers":[
		{
			"byteLength":623232,
			"uri":"data:application/octet-stream;base64,"
		}
	]
}
